<?xml version="1.0" encoding="UTF-8"?>
<svg width="752pt" height="752pt" version="1.1" viewBox="0 0 752 752" xmlns="http://www.w3.org/2000/svg">
 <g>
  <path d="m376 213.21c-43.176 0-84.582 17.152-115.11 47.684-30.531 30.527-47.684 71.934-47.684 115.11s17.152 84.586 47.684 115.11c30.527 30.531 71.934 47.68 115.11 47.68s84.586-17.148 115.11-47.68c30.531-30.527 47.68-71.938 47.68-115.11s-17.148-84.582-47.68-115.11c-30.527-30.531-71.938-47.684-115.11-47.684zm0 295.99c-35.324 0-69.203-14.031-94.18-39.012-24.98-24.977-39.012-58.855-39.012-94.184 0-35.324 14.031-69.203 39.012-94.18 24.977-24.98 58.855-39.012 94.18-39.012 35.328 0 69.207 14.031 94.184 39.012 24.98 24.977 39.012 58.855 39.012 94.18 0 35.328-14.031 69.207-39.012 94.184-24.977 24.98-58.855 39.012-94.184 39.012z"/>
  <path d="m435.2 361.2h-44.398v-44.398c0-5.2891-2.8203-10.176-7.3984-12.816-4.582-2.6445-10.223-2.6445-14.801 0-4.5781 2.6406-7.3984 7.5273-7.3984 12.816v44.398h-44.398c-5.2891 0-10.176 2.8203-12.816 7.3984-2.6445 4.5781-2.6445 10.219 0 14.801 2.6406 4.5781 7.5273 7.3984 12.816 7.3984h44.398v44.398c0 5.2891 2.8203 10.172 7.3984 12.816 4.5781 2.6445 10.219 2.6445 14.801 0 4.5781-2.6445 7.3984-7.5273 7.3984-12.816v-44.398h44.398c5.2891 0 10.172-2.8203 12.816-7.3984 2.6445-4.582 2.6445-10.223 0-14.801-2.6445-4.5781-7.5273-7.3984-12.816-7.3984z"/>
 </g>
</svg>
