<?xml version="1.0" encoding="UTF-8"?>
<svg width="752pt" height="752pt" version="1.1" viewBox="0 0 752 752" xmlns="http://www.w3.org/2000/svg">
 <defs>
  <clipPath id="a">
   <path d="m189 139.21h374v473.58h-374z"/>
  </clipPath>
 </defs>
 <g clip-path="url(#a)">
  <path d="m562.78 195.85c0-0.42578-0.046875-0.85156-0.14062-1.2773 0-0.09375-0.046875-0.14062-0.046875-0.23828-0.09375-0.33203-0.1875-0.66406-0.28516-0.94531-0.046875-0.14062-0.14062-0.28516-0.1875-0.42578-0.09375-0.23828-0.23828-0.47266-0.37891-0.71094-0.09375-0.14062-0.14063-0.23828-0.23828-0.37891-0.1875-0.28516-0.42578-0.56641-0.66406-0.80469-0.046875-0.046874-0.09375-0.09375-0.14062-0.14062l-49.633-49.637c-0.33203-0.33203-0.66406-0.56641-0.99609-0.80469-0.046874-0.046875-0.09375-0.046875-0.1875-0.09375-0.33203-0.1875-0.61719-0.37891-0.94531-0.51953-0.09375-0.046875-0.14062-0.09375-0.23828-0.09375-0.85156-0.38281-1.7539-0.57031-2.6523-0.57031h-0.09375-270.41c-3.9766 0-7.1992 3.2188-7.1992 7.1992v33.719h-31.965c-3.9766 0-7.1992 3.2188-7.1992 7.1992v418.31c0 3.9766 3.2188 7.1992 7.1992 7.1992h320.05c3.9766 0 7.1992-3.2188 7.1992-7.1992v-33.719h31.965c3.9766 0 7.1992-3.2188 7.1992-7.1992l-0.003906-368.73v-0.14063zm-49.629-32.062 25.051 25.051h-25.051zm-3.8867 434.61h-305.65v-403.92h24.77v370.2c0 3.9766 3.2188 7.1992 7.1992 7.1992h273.68zm-266.53-40.871v-403.91h256.02v42.434c0 3.9766 3.2188 7.1992 7.1992 7.1992h42.434v354.29z"/>
 </g>
 <path d="m501.21 232.03h-216.99c-3.9766 0-7.1992 3.2188-7.1992 7.1992 0 3.9766 3.2188 7.1992 7.1992 7.1992h217c3.9766 0 7.1992-3.2188 7.1992-7.1992-0.003907-3.9766-3.2227-7.1992-7.2031-7.1992z"/>
 <path d="m501.21 275.6h-216.99c-3.9766 0-7.1992 3.2188-7.1992 7.1992 0 3.9766 3.2188 7.1992 7.1992 7.1992h217c3.9766 0 7.1992-3.2188 7.1992-7.1992-0.003907-3.9766-3.2227-7.1992-7.2031-7.1992z"/>
 <path d="m501.21 319.22h-216.99c-3.9766 0-7.1992 3.2188-7.1992 7.1992 0 3.9766 3.2188 7.1992 7.1992 7.1992h217c3.9766 0 7.1992-3.2188 7.1992-7.1992-0.003907-3.9805-3.2227-7.1992-7.2031-7.1992z"/>
 <path d="m501.21 362.79h-216.99c-3.9766 0-7.1992 3.2188-7.1992 7.1992 0 3.9766 3.2188 7.1992 7.1992 7.1992h217c3.9766 0 7.1992-3.2188 7.1992-7.1992-0.003907-3.9805-3.2227-7.1992-7.2031-7.1992z"/>
 <path d="m501.21 406.36h-216.99c-3.9766 0-7.1992 3.2188-7.1992 7.1992 0 3.9766 3.2188 7.1992 7.1992 7.1992h217c3.9766 0 7.1992-3.2188 7.1992-7.1992-0.003907-3.9805-3.2227-7.1992-7.2031-7.1992z"/>
 <path d="m501.21 449.98h-216.99c-3.9766 0-7.1992 3.2188-7.1992 7.1992 0 3.9766 3.2188 7.1992 7.1992 7.1992h217c3.9766 0 7.1992-3.2188 7.1992-7.1992-0.003907-3.9805-3.2227-7.1992-7.2031-7.1992z"/>
</svg>
